<?xml version="1.0" encoding="UTF-8" standalone="no"?>
<svg
   xmlns:dc="http://purl.org/dc/elements/1.1/"
   xmlns:cc="http://creativecommons.org/ns#"
   xmlns:rdf="http://www.w3.org/1999/02/22-rdf-syntax-ns#"
   xmlns:svg="http://www.w3.org/2000/svg"
   xmlns="http://www.w3.org/2000/svg"
   xmlns:sodipodi="http://sodipodi.sourceforge.net/DTD/sodipodi-0.dtd"
   xmlns:inkscape="http://www.inkscape.org/namespaces/inkscape"
   version="1.1"
   width="296.5448"
   height="285.80234"
   viewBox="0 0 296.5448 285.80234"
   xml:space="preserve"
   id="svg46"
   sodipodi:docname="cv_logo.svg"
   inkscape:version="1.0.2-2 (e86c870879, 2021-01-15)"><metadata
   id="metadata50"><rdf:RDF><cc:Work
       rdf:about=""><dc:format>image/svg+xml</dc:format><dc:type
         rdf:resource="http://purl.org/dc/dcmitype/StillImage" /><dc:title></dc:title><dc:creator><cc:Agent><dc:title>Wiktor Zolnierowicz</dc:title></cc:Agent></dc:creator></cc:Work></rdf:RDF></metadata><sodipodi:namedview
   pagecolor="#ffffff"
   bordercolor="#666666"
   borderopacity="1"
   objecttolerance="10"
   gridtolerance="10"
   guidetolerance="10"
   inkscape:pageopacity="0.36470588"
   inkscape:pageshadow="2"
   inkscape:window-width="1920"
   inkscape:window-height="1017"
   id="namedview48"
   showgrid="false"
   inkscape:pagecheckerboard="true"
   fit-margin-top="0"
   fit-margin-left="0"
   fit-margin-right="0"
   fit-margin-bottom="0"
   inkscape:zoom="0.83007812"
   inkscape:cx="148.25702"
   inkscape:cy="82.626227"
   inkscape:window-x="-8"
   inkscape:window-y="-8"
   inkscape:window-maximized="1"
   inkscape:current-layer="svg46" />
<desc
   id="desc31">cogitovirus logo</desc>
<defs
   id="defs33">
</defs>
<g
   transform="matrix(1.0757644,0,0,1.0757644,148.2724,142.90116)"
   id="logo-logo">
<g
   paint-order="stroke"
   id="g43">
		<g
   transform="matrix(0.22211523,0,0,-0.22211523,4.3650149,-35.392084)"
   id="g37">
<path
   style="opacity:1;fill:#ffffff;fill-rule:nonzero;stroke:none;stroke-width:1;stroke-linecap:butt;stroke-linejoin:miter;stroke-miterlimit:4;stroke-dasharray:none;stroke-dashoffset:0"
   paint-order="stroke"
   transform="translate(-640.1855,-757.4)"
   d="m 640.188,833.23 c -41.879,0 -75.833,-33.949 -75.833,-75.832 0,-41.878 33.954,-75.828 75.833,-75.828 41.878,0 75.828,33.95 75.828,75.828 0,41.883 -33.95,75.832 -75.828,75.832"
   stroke-linecap="round"
   id="path35" />
</g>
<g
   transform="scale(0.22211523,-0.22211523)"
   id="g41">
<path
   style="opacity:1;fill:#ffffff;fill-rule:nonzero;stroke:none;stroke-width:1;stroke-linecap:butt;stroke-linejoin:miter;stroke-miterlimit:4;stroke-dasharray:none;stroke-dashoffset:0"
   paint-order="stroke"
   transform="translate(-620.53347,-598.05891)"
   d="M 801.207,304.844 C 789.734,297.453 777.676,291 765.078,285.496 c 37.106,35.754 54.715,82.641 51.34,138.027 -4.539,74.747 -44.883,128.856 -116.652,156.481 -17.309,6.66 -37.297,10.328 -56.282,10.328 -1.293,0 -2.586,-0.016 -3.871,-0.051 -1.097,-0.027 -2.191,-0.043 -3.297,-0.043 -65.355,0 -139.691,50.926 -150.953,136.149 -10.3,77.945 39.129,151.785 114.973,171.758 34.566,9.101 71.312,7.476 118.285,-5.582 C 852.109,855.43 944.949,744.23 955.141,609.273 964.949,479.359 913.156,376.938 801.207,304.844 Z m -161.019,31.719 c -41.879,0 -75.833,33.949 -75.833,75.832 0,41.878 33.954,75.828 75.833,75.828 41.878,0 75.828,-33.95 75.828,-75.828 0,-41.883 -33.95,-75.832 -75.828,-75.832 z m 541.892,198.281 c -24.69,5.551 -48.75,-1.434 -66.17,-16.34 -9.14,-7.82 -21.6,-10.524 -33.28,-7.656 l -90.228,22.156 c 1.918,14.543 3.071,29.32 3.18,44.344 0.082,11.539 -0.426,22.941 -1.387,34.215 l 44.375,2.296 c 11.31,0.582 22.62,-2.328 31.89,-8.828 8.24,-5.769 18.24,-9.125 28.93,-9.097 27.75,0.07 51.66,25.238 50.23,52.949 -1.44,28.121 -25.6,49.539 -53.6,47.707 -14.43,-0.945 -27.03,-7.887 -35.55,-18.235 -9.74,-11.839 -23.6,-19.546 -38.92,-20.3 l -34.038,-1.672 c -6.051,28.488 -15.383,55.754 -27.629,81.347 l 103.867,80.633 c 8.95,6.95 20.5,9.367 31.58,7.02 22.21,-4.711 46.43,0.48 65.44,16.922 26.65,23.047 33.79,62.738 16.76,93.582 -22.25,40.304 -73.73,51.371 -110.28,25.574 -22.4,-15.813 -33.61,-41.555 -31.91,-67.047 0.82,-12.305 -5.19,-24.086 -14.91,-31.672 l -91.883,-71.703 c -15.848,22.359 -34.152,42.781 -54.488,60.926 l 35.609,64.41 c 6.535,11.82 17.434,20.469 30.277,24.648 12.231,3.981 23.098,12.684 29.618,25.7 9.062,18.086 6.058,40.547 -7.485,55.567 -22.004,24.41 -59.316,21.79 -78.035,-3.08 -9.668,-12.84 -12.246,-28.796 -8.418,-43.21 3.363,-12.676 1.465,-26.168 -4.809,-37.687 l -31.925,-58.645 c -33.161,22.863 -70.301,40.18 -110.149,50.648 l 16.367,96.514 c 1.996,11.75 9.579,21.53 19.969,27.37 25.356,14.23 41.703,42.56 38.309,74.41 -3.711,34.79 -31.926,63.16 -66.707,67.02 -45.762,5.08 -84.508,-30.61 -84.508,-75.35 0,-20.24 7.953,-38.59 20.887,-52.17 8.511,-8.94 12.937,-20.99 10.875,-33.16 L 667.93,940.59 c -8.328,0.664 -16.711,1.144 -25.192,1.219 l -3.133,0.011 c -18.062,0 -35.769,-1.328 -53.066,-3.804 l -18.101,54.738 c -3.321,10.036 -2.579,20.746 0.746,30.776 3.996,12.08 3.441,25.61 -2.504,37.81 -12.282,25.19 -44.348,35.61 -69.063,22.38 -24.847,-13.3 -33.918,-44.32 -20.289,-68.88 5.133,-9.25 12.75,-16.238 21.559,-20.617 12.48,-6.2 22.593,-16.293 27.066,-29.489 l 12.551,-37 C 503.137,917.652 470.105,902.43 440.262,882.805 L 349.68,996.59 c -8.805,11.06 -10.45,25.96 -5.008,39.01 9.047,21.7 7.969,47.34 -5.508,69.12 -20.547,33.21 -64.746,45.35 -99.391,27.33 -38.101,-19.83 -52.046,-67.05 -31.253,-104.28 11.914,-21.32 32.597,-34.633 55.023,-37.981 9.328,-1.394 17.707,-6.457 23.566,-13.848 L 391.52,844.195 c -16.45,-15.539 -31.407,-32.629 -44.672,-51.082 l -35.051,16.176 c -12.699,5.863 -21.543,17.191 -25.984,30.453 -3.567,10.653 -10.684,20.141 -20.797,26.524 -23.453,14.797 -57.114,6.363 -70.762,-17.778 -13.867,-24.523 -4.949,-55.566 19.691,-69.027 11.512,-6.289 24.403,-7.613 36.211,-4.695 11.949,2.949 24.508,2.156 35.68,-3.012 l 36.844,-17.031 c -18.094,-33.41 -31.028,-70.176 -38.012,-109.25 l -113.379,22.558 c -11.59,2.309 -21.695,9.754 -26.66,20.481 -9.012,19.476 -26.176,35.031 -48.5079,41.226 -38.707,10.746 -80.3789,-11.781 -92.53126,-50.07 -13.0039,-40.977 10.49996,-84.289 51.55076,-95.945 25.4766,-7.231 51.5664,-0.496 70.2144,15.605 8.567,7.399 19.762,10.988 30.872,8.805 l 122.543,-24.094 -0.059,-1.754 c -0.379,-42.066 6.598,-83.164 20.305,-121.879 l -70.137,-35.433 c -13.895,-7.02 -29.953,-6.719 -44.391,-0.899 -6.863,2.77 -14.422,4.055 -22.238,3.5 -27.988,-1.98 -49.633,-27.886 -46.551,-55.773 3.094,-28.004 28.485,-47.965 56.34,-44.473 17.434,2.184 31.649,13.035 38.891,27.688 4.82,9.75 13.254,17.254 22.965,22.152 l 82.906,41.824 c 16.722,-33.125 38.656,-63.929 65.562,-91.281 7.473,-7.598 15.254,-14.758 23.242,-21.598 l -59.453,-96.148 c -6.734,-10.891 -18.672,-16.926 -31.472,-17.375 -30.547,-1.059 -59.012,-20.61 -69.41,-52.129 -11.946,-36.199 5.949,-76.8516 40.664,-92.6094 39.222,-17.8125 85.082,0.5 101.453,39.9687 6.859,16.5507 7.41,34.1207 2.777,50.0777 -3.094,10.661 -2.09,22.09 3.797,31.512 l 62.629,100.199 c 39.515,-23.382 82.976,-38.796 128.453,-45.382 l 0.105,-50.875 c 0.032,-14.09 -6.55,-26.973 -16.75,-36.68 -13.171,-12.531 -19.375,-31.961 -13.351,-51.6134 5.969,-19.4805 23.824,-33.7188 44.148,-35.0977 32.805,-2.2304 57.789,25.6289 53.914,56.5271 -1.171,9.364 -4.839,17.793 -10.254,24.723 -7.781,9.961 -12.605,21.891 -12.472,34.527 l 0.57,54.84 c 0.723,-0.008 1.434,-0.062 2.152,-0.066 l 2.754,-0.012 c 50.235,0 98.133,10.469 141.676,29.258 L 849.59,131.922 c 6.008,-9.82 6.695,-21.731 2.976,-32.6212 -8.043,-23.5625 -4.402,-50.6914 12.504,-71.8789 23.192,-29.08206 70.899,-36.32034 101.696,-15.461 35.564,24.0782 43.974,72.6094 19.015,107.1871 -13.761,19.071 -34.734,29.793 -56.496,31.223 -12.433,0.809 -23.469,8.301 -29.941,18.949 l -66.922,110.028 c 29.641,19.449 56.289,43.105 79.016,70.179 l 37.332,-25.601 c 10.734,-7.367 17.886,-18.571 21.363,-31.117 l 0.129,-0.461 c 6.027,-21.067 25.933,-36.106 47.848,-36.215 33.17,-0.168 57.28,30.535 49.4,62.621 -5.05,20.594 -23.26,36.168 -44.39,37.965 -4.96,0.422 -9.72,0.129 -14.23,-0.766 -14.437,-2.855 -29.386,1.27 -41.538,9.563 l -29.368,20.043 c 17.567,27.109 31.618,56.671 41.418,88.097 l 92.128,-23.144 c 11.23,-2.824 20.07,-10.957 24.94,-21.465 10.55,-22.762 32.12,-39.801 58.84,-43.324 44.34,-5.844 84.77,27.879 85.74,73.894 0.75,35.469 -24.36,67.446 -58.97,75.227"
   stroke-linecap="round"
   id="path39" />
</g>
</g>
</g>
</svg>
